<?xml version="1.0" standalone="no"?>
<!DOCTYPE svg PUBLIC "-//W3C//DTD SVG 20010904//EN"
 "http://www.w3.org/TR/2001/REC-SVG-20010904/DTD/svg10.dtd">
<svg version="1.0" xmlns="http://www.w3.org/2000/svg"
 width="1600.000000pt" height="1600.000000pt" viewBox="0 0 1600.000000 1600.000000"
 preserveAspectRatio="xMidYMid meet">

<g transform="translate(0.000000,1600.000000) scale(0.100000,-0.100000)"
fill="#000000" stroke="none">
<path d="M7028 12132 c-27 -5 -22 -35 22 -123 44 -86 90 -242 90 -299 -2 -134
-54 -272 -156 -415 -233 -325 -279 -427 -277 -618 1 -54 9 -133 18 -175 35
-157 52 -167 250 -159 250 11 484 65 662 153 126 63 156 66 161 17 4 -38 -25
-63 -134 -117 -191 -94 -458 -143 -854 -155 l-225 -7 -92 -47 c-50 -25 -144
-81 -208 -124 -64 -43 -133 -88 -152 -101 -19 -13 -83 -72 -143 -130 -212
-210 -303 -407 -316 -687 -9 -180 36 -409 109 -555 19 -40 26 -45 58 -48 30
-3 40 2 58 25 53 68 220 229 285 272 102 69 147 90 254 117 138 35 267 30 410
-15 85 -28 125 -50 232 -130 52 -39 104 -71 115 -71 32 0 358 113 516 178 371
154 630 300 914 514 189 143 345 279 496 435 143 146 144 149 128 290 -30 275
-160 558 -380 829 -173 213 -421 471 -559 583 -86 69 -191 142 -352 245 -127
80 -397 213 -513 251 -123 41 -358 78 -417 67z"/>
<path d="M9308 9712 c-29 -10 -87 -50 -145 -99 -102 -84 -146 -120 -298 -238
-430 -335 -852 -555 -1477 -771 -42 -14 -79 -33 -82 -41 -4 -9 13 -46 40 -87
149 -233 207 -451 207 -781 0 -208 -20 -350 -69 -485 -13 -37 -24 -80 -24 -95
0 -26 2 -27 38 -23 83 12 877 321 960 374 23 15 23 16 16 167 -15 330 51 568
235 852 64 99 220 253 306 302 244 140 531 145 755 13 91 -53 210 -161 299
-271 88 -109 106 -116 163 -69 31 25 42 47 72 138 45 136 56 213 45 327 -25
268 -197 498 -479 640 -47 24 -145 63 -217 88 -72 25 -140 50 -150 55 -38 20
-146 22 -195 4z"/>
<path d="M10268 8358 c-21 -12 -40 -30 -43 -39 -4 -10 15 -80 41 -156 97 -287
106 -486 38 -827 -57 -289 -191 -528 -389 -696 -87 -74 -159 -115 -266 -151
-85 -29 -106 -32 -214 -33 -85 0 -141 5 -190 18 -102 26 -238 94 -332 165
-148 112 -235 239 -343 501 -36 87 -61 136 -72 138 -9 2 -146 -49 -305 -112
-158 -63 -396 -155 -528 -205 -285 -108 -342 -135 -421 -201 -167 -140 -226
-184 -300 -220 -109 -54 -216 -74 -354 -67 -114 7 -179 24 -307 81 -94 42
-102 42 -316 17 -89 -11 -200 -22 -247 -26 -47 -3 -137 -12 -200 -20 -153 -18
-361 -34 -605 -44 -220 -10 -242 -15 -375 -96 -32 -19 -64 -35 -72 -35 -22 0
-185 -129 -275 -217 -138 -136 -247 -321 -309 -525 -22 -71 -26 -109 -31 -263
-5 -167 -4 -191 21 -316 40 -209 84 -321 172 -444 48 -68 73 -92 159 -157 180
-136 411 -202 750 -215 171 -6 338 8 545 47 58 11 159 29 225 39 257 42 716
125 1060 192 523 101 633 124 795 163 185 44 779 205 803 217 21 12 22 38 1
46 -9 3 -60 -2 -114 -12 -80 -15 -128 -17 -257 -12 -256 10 -498 73 -758 196
-175 84 -310 179 -470 332 -38 37 -82 77 -97 88 -60 47 -87 131 -53 165 36 35
112 43 268 26 289 -30 1009 -42 1292 -20 372 28 661 68 1030 141 209 41 358
52 383 27 41 -41 -8 -125 -178 -302 -178 -186 -343 -317 -499 -397 -104 -53
-127 -71 -116 -89 17 -27 40 -20 460 150 373 150 490 204 675 306 298 166 490
308 734 543 287 276 491 601 565 899 49 198 51 369 5 539 -93 346 -304 593
-664 775 -72 37 -264 110 -283 108 -1 0 -19 -10 -39 -22z"/>
<path d="M9343 8345 c-113 -31 -187 -86 -260 -195 -84 -126 -144 -384 -128
-555 34 -371 260 -624 521 -583 82 13 142 45 210 113 98 98 157 224 189 403 8
45 17 87 20 93 15 23 -34 318 -67 406 -85 229 -300 369 -485 318z"/>
<path d="M5675 8321 c-123 -48 -349 -154 -370 -171 -11 -10 -38 -29 -59 -43
-60 -40 -199 -179 -250 -252 -65 -90 -121 -212 -153 -330 -25 -93 -27 -114
-27 -300 -1 -183 2 -211 27 -330 44 -202 64 -263 93 -281 21 -15 51 -16 232
-11 227 6 371 21 652 68 193 33 220 40 220 64 0 7 -29 52 -64 98 -129 172
-206 334 -247 527 -20 92 -23 133 -24 330 0 253 10 325 71 517 20 62 34 119
30 128 -8 22 -52 18 -131 -14z"/>
<path d="M6575 8337 c-168 -44 -294 -188 -367 -418 -20 -65 -23 -93 -22 -239
1 -193 16 -265 89 -413 56 -115 128 -193 223 -239 59 -29 76 -33 147 -33 89 1
156 25 228 83 59 47 137 150 172 227 38 81 48 116 69 237 14 77 14 101 1 200
-8 62 -24 147 -35 188 -84 293 -292 462 -505 407z"/>
<path d="M10865 8120 c-3 -5 1 -10 9 -10 9 0 16 5 16 10 0 6 -4 10 -9 10 -6 0
-13 -4 -16 -10z"/>
<path d="M11178 6259 c-15 -6 -60 -52 -104 -107 -227 -284 -432 -466 -779
-694 -427 -280 -1113 -576 -1780 -768 -60 -18 -153 -45 -205 -60 -249 -74
-586 -161 -770 -199 -96 -20 -126 -30 -128 -43 -2 -9 5 -21 15 -26 34 -19 370
-64 933 -126 1125 -124 1776 -127 2470 -10 343 58 741 193 962 325 236 142
377 388 393 689 6 107 6 110 -31 212 -55 154 -81 202 -190 344 -139 180 -347
340 -544 418 -51 20 -203 60 -213 55 -1 0 -14 -5 -29 -10z"/>
</g>
</svg>
